<svg xmlns="http://www.w3.org/2000/svg" xmlns:xlink="http://www.w3.org/1999/xlink" preserveAspectRatio="none" width="888" height="400"><defs><path fill="#333" d="M566.15 197.6h-1.75v14h1.75v-6.85q0-.6.05-1.25.1-.65.25-1.3.2-.65.45-1.2.3-.6.7-1.1.4-.45.95-.7.5-.25 1.2-.25 1 0 1.6.45v-1.85q-.25-.1-.6-.15-.35-.05-.75-.05-.65 0-1.25.2-.55.25-1.05.65t-.85 1.05q-.4.6-.65 1.35h-.05v-3m-11.3-.35q-1.6 0-2.9.55-1.3.5-2.2 1.45-.9.95-1.4 2.35-.5 1.35-.5 3.1 0 1.65.5 2.95.45 1.35 1.35 2.3.85.95 2.1 1.45 1.25.55 2.8.55 1.55 0 2.85-.55 1.25-.55 2.1-1.5.9-1 1.35-2.3.5-1.35.5-3 0-1.75-.45-3.1t-1.3-2.3q-.85-.95-2.1-1.4-1.2-.55-2.7-.55m4.7 7.35q0 1.4-.3 2.45-.3 1.1-.95 1.85-.65.75-1.55 1.15-.9.35-2.05.35t-2.1-.35q-.9-.45-1.55-1.2t-1-1.8q-.35-1.05-.35-2.35 0-1.4.35-2.5t1-1.85q.65-.75 1.6-1.15.9-.4 2.05-.4 2.35 0 3.6 1.5t1.25 4.3m-22.9-7h-1.75v14h1.75v-14m4.65 0h-2.45v1.55h2.45V208q0 3.9 3.4 3.9 1.05 0 1.95-.45v-1.55q-.75.5-1.55.5-1.1 0-1.55-.65-.5-.6-.5-2.05v-8.55h3.6v-1.55h-3.6v-4.1l-1.75.55v3.55m-6.4-3.9q.35.35.85.35.3 0 .5-.1.25-.1.4-.25.2-.15.3-.4.1-.25.1-.5t-.1-.5q-.1-.2-.3-.4-.15-.15-.4-.25-.2-.1-.5-.1-.5 0-.85.4-.4.3-.4.85t.4.9m-13.15 3.9H520v14h1.75v-8q0-1.05.35-1.9.3-.9.85-1.55.6-.65 1.35-1 .8-.35 1.7-.35 3.45 0 3.45 4.75v8.05h1.75v-8.55q0-2.8-1.2-4.3t-3.5-1.5q-3.15 0-4.7 2.8h-.05v-2.45m-56.4 0h-1.9l5.35 13.95-1.2 2.85q-.45 1.1-1.1 1.65-.65.55-1.5.55-.3 0-.6-.1-.3-.05-.65-.15V218q.55.2 1.3.2 1.5 0 2.6-1 1.05-1 1.85-3.05l6.65-16.55h-1.85l-4.25 11.15q-.1.3-.15.55-.1.2-.15.45h-.05q-.1-.3-.15-.55-.1-.3-.15-.5l-4.05-11.1m-5.85-.35q-1.7 0-3.05.6-1.35.65-2.25 1.65-.9 1.05-1.4 2.45-.45 1.35-.45 2.95 0 1.5.45 2.8.45 1.3 1.3 2.25.85.95 2.05 1.45 1.2.55 2.7.55 2.2-.05 3.75-1v-1.7q-1.55 1.15-3.55 1.15-1.25 0-2.2-.45-.9-.45-1.5-1.25t-.9-1.8q-.3-1.05-.3-2.15 0-1.2.35-2.3.35-1.1 1-1.9.65-.8 1.65-1.3.95-.45 2.2-.45 1.8 0 3.3 1v-1.85q-1.45-.7-3.15-.7m-27.25.5q-1-.5-2.35-.5-1.4 0-2.55.6-1.2.55-2 1.5-.85 1-1.35 2.3-.5 1.35-.5 2.95 0 1.75.45 3.1t1.25 2.3q.8.95 1.95 1.45t2.55.5q2.85 0 4.9-1.45v-1.75q-2.1 1.65-4.5 1.65-1.1 0-1.95-.35-.9-.4-1.5-1.1-.65-.7-.95-1.7-.35-1.05-.35-2.35h10.1v-.85q0-1.55-.35-2.85-.4-1.25-1.1-2.1-.7-.9-1.75-1.35m.35 2.25q1 1.2 1.05 3.4h-8.25q.15-1.1.5-1.95.4-.85.95-1.45.6-.6 1.35-.9.75-.3 1.65-.3 1.75 0 2.75 1.2m7.55-2.4h-1.75v14h1.75v-8q0-1.05.35-1.9.3-.9.85-1.55.6-.65 1.35-1 .8-.35 1.7-.35 3.45 0 3.45 4.75v8.05h1.75v-8.55q0-2.8-1.2-4.3t-3.5-1.5q-3.15 0-4.7 2.8h-.05v-2.45m-23.2 0h-2.45v1.55h2.45V208q0 3.9 3.4 3.9 1.05 0 1.95-.45v-1.55q-.75.5-1.55.5-1.1 0-1.55-.65-.5-.6-.5-2.05v-8.55h3.6v-1.55h-3.6v-4.1l-1.75.55v3.55m93.5-.35q-1.6 0-2.9.55-1.3.5-2.2 1.45-.9.95-1.4 2.35-.5 1.35-.5 3.1 0 1.65.5 2.95.45 1.35 1.35 2.3.85.95 2.1 1.45 1.25.55 2.8.55 1.55 0 2.85-.55 1.25-.55 2.1-1.5.9-1 1.35-2.3.5-1.35.5-3 0-1.75-.45-3.1t-1.3-2.3q-.85-.95-2.1-1.4-1.2-.55-2.7-.55m3.45 3.05q1.25 1.5 1.25 4.3 0 1.4-.3 2.45-.3 1.1-.95 1.85-.65.75-1.55 1.15-.9.35-2.05.35t-2.1-.35q-.9-.45-1.55-1.2t-1-1.8q-.35-1.05-.35-2.35 0-1.4.35-2.5t1-1.85q.65-.75 1.6-1.15.9-.4 2.05-.4 2.35 0 3.6 1.5m-15.45-5.6h.05q-.15 2.35-.15 3.35v13.55h1.8V192h-2.05l-6.7 14.75q-.25.5-.4.95-.15.45-.35 1h-.1q-.15-.55-.35-1-.2-.5-.4-.95L483.15 192H481v19.6h1.75v-15.5q0-.8-.1-1.4h.1q.3 1.25.6 1.9l6.85 15h.75l6.85-15.1q.15-.25.3-.7.15-.45.35-1.1m-90.6 2.55q-.6 0-1.25.15-.65.1-1.3.25-.6.2-1.15.45-.55.25-1 .55v1.95q2.1-1.8 4.55-1.8 3.1 0 3.1 4l-4.25.65q-2.35.35-3.55 1.45-1.15 1.15-1.15 3.05 0 .85.3 1.6.3.75.9 1.3.55.5 1.35.8.8.3 1.85.3 1.45 0 2.65-.75t1.85-2.1h.05v2.5h1.75v-9.1q0-2.6-1.15-3.9-1.2-1.35-3.55-1.35m-2.25 7.9q.65-.2 1.6-.35l3.6-.5v1.4q0 1-.3 1.9-.3.85-.9 1.5-.55.6-1.35.95-.75.35-1.7.35-.7 0-1.2-.15-.55-.2-.95-.55-.35-.35-.55-.85-.2-.45-.2-1 0-.8.2-1.3t.65-.85q.45-.35 1.1-.55M392.35 192h-1.8v19.6h9.7v-1.65h-7.9V192m-8.7 5.8q-.95-.25-1.9-.4-.95-.15-1.85-.15-1.2 0-2.3.25-1.1.25-1.95.8-.85.55-1.4 1.4-.5.85-.5 2 0 .9.25 1.5.2.65.65 1.1.4.5 1.05.85t1.45.7q.55.2 1.1.35.55.15 1.05.35.45.2.75.5.3.25.3.7 0 .6-.65.95-.65.3-1.8.3-.95 0-2-.3-1.1-.35-2.15-.95v3.5q1.95.7 4.3.7 1.25 0 2.4-.25 1.2-.25 2.1-.8.85-.55 1.4-1.45.55-.9.55-2.15 0-.85-.25-1.5-.3-.65-.8-1.15-.5-.45-1.2-.8-.7-.35-1.55-.65-.45-.2-.95-.35-.5-.15-.9-.35-.4-.2-.65-.45-.2-.3-.2-.7 0-.25.15-.5.15-.2.45-.35.3-.15.65-.2.4-.1.8-.1.9 0 1.85.25.95.25 1.75.7v-3.35m-12.1-.2h-4.35v14h4.35v-14m-2.15-6.65q-1.1 0-1.8.6t-.7 1.6q0 .95.7 1.6.7.65 1.8.65t1.8-.65q.7-.6.7-1.6t-.7-1.6q-.7-.6-1.8-.6m-5.35-.1h-4.3v8.35h-.05q-1.05-1.95-3.8-1.95-2.85 0-4.6 2.1-1.75 2.1-1.75 5.55 0 3.35 1.6 5.2t4.2 1.85q2.85 0 4.35-2.3h.05v1.95h4.3v-20.75m-9.3 10.85q.8-1.15 2.2-1.15 1.3 0 2.1.9t.8 2.3v1.05q0 1.75-.85 2.8-.8 1.05-2.15 1.05-1.35 0-2.15-1-.8-1-.8-2.85 0-2 .85-3.1m-6.45 2.3q0-3.1-1.65-4.9-1.7-1.85-4.75-1.85-2.95 0-5 2.05-2 2.05-2 5.5 0 3.4 1.85 5.25 1.9 1.9 5.25 1.9 3.1 0 5.05-1.05v-3.1q-1.75 1.1-4.05 1.1-3.6 0-3.85-3.05h9.15V204m-8.25-2.95q.75-.9 1.8-.9 2.45 0 2.45 3.05h-5.15q.15-1.3.9-2.15m-6.85-3.7q0-5.35-7.15-5.35h-7v19.6h4.4v-7.5h1.2q.4 0 .75.15.35.2.7.5.3.35.6.8.35.45.65 1l3.05 5.05h5.1l-3.7-5.8q-.3-.45-.65-.9-.35-.5-.75-.9-.35-.4-.8-.7-.4-.35-.8-.45v-.05q.95-.3 1.8-.8.8-.5 1.4-1.2.55-.7.85-1.55.35-.9.35-1.9m-7.75-2.05q3.1 0 3.1 2.55 0 1.25-.9 2.1-.85.8-2.3.8h-1.9v-5.45h2z" id="a"/></defs><use xlink:href="#a"/></svg>