<svg width="914" height="400" fill="none" xmlns="http://www.w3.org/2000/svg"><style>#CL0 {fill: #333;}#CL1 {fill: #D82C20;}@media (prefers-color-scheme: dark) {#CL0 {fill: #CCC;}#CL1 {fill: #D82C20;}}</style><path d="M348.416 212h-5.072l-3.049-5.045a16.654 16.654 0 0 0-.656-1.025 5.098 5.098 0 0 0-.643-.766 2.205 2.205 0 0 0-.67-.492 1.594 1.594 0 0 0-.751-.178h-1.19V212h-4.416v-19.605h7c4.758 0 7.137 1.777 7.137 5.332a5.57 5.57 0 0 1-.315 1.9 5.291 5.291 0 0 1-.888 1.559 5.621 5.621 0 0 1-1.395 1.203 7.063 7.063 0 0 1-1.805.793v.054c.292.091.575.242.848.452.274.2.538.437.793.71.255.274.497.57.725.889.237.31.451.615.642.916l3.705 5.797Zm-12.031-16.297v5.455h1.914c.948 0 1.709-.273 2.283-.82.584-.556.875-1.244.875-2.065 0-1.713-1.025-2.57-3.076-2.57h-1.996Zm24.76 10.527h-9.132c.145 2.033 1.426 3.049 3.841 3.049 1.541 0 2.894-.364 4.061-1.093v3.117c-1.294.692-2.976 1.039-5.045 1.039-2.26 0-4.015-.625-5.264-1.873-1.248-1.258-1.873-3.008-1.873-5.25 0-2.324.675-4.166 2.024-5.524 1.349-1.358 3.008-2.037 4.976-2.037 2.042 0 3.619.606 4.731 1.819 1.121 1.212 1.681 2.857 1.681 4.935v1.818Zm-4.005-2.652c0-2.005-.812-3.008-2.434-3.008-.693 0-1.294.287-1.805.862-.501.574-.806 1.289-.916 2.146h5.155ZM376.855 212h-4.32v-1.928h-.055c-.984 1.513-2.429 2.27-4.334 2.27-1.75 0-3.158-.615-4.225-1.846-1.066-1.239-1.599-2.967-1.599-5.182 0-2.315.588-4.169 1.763-5.564 1.176-1.395 2.717-2.092 4.621-2.092 1.805 0 3.063.647 3.774 1.942h.055v-8.327h4.32V212Zm-4.238-6.809v-1.052c0-.912-.265-1.668-.793-2.27-.529-.601-1.217-.902-2.065-.902-.957 0-1.704.378-2.242 1.135-.538.747-.807 1.777-.807 3.089 0 1.231.26 2.179.78 2.844.519.666 1.239.998 2.16.998.875 0 1.586-.351 2.133-1.053.556-.701.834-1.631.834-2.789Zm9.502-9.406c-.729 0-1.326-.214-1.791-.642a2.114 2.114 0 0 1-.697-1.6c0-.647.232-1.176.697-1.586.465-.41 1.062-.615 1.791-.615.738 0 1.335.205 1.791.615.465.41.697.939.697 1.586 0 .656-.232 1.194-.697 1.613-.456.42-1.053.629-1.791.629ZM384.252 212h-4.32v-14h4.32v14Zm2.161-.369v-3.5a9.27 9.27 0 0 0 2.119.957c.711.21 1.381.314 2.01.314.765 0 1.367-.104 1.804-.314.447-.21.67-.529.67-.957 0-.274-.1-.501-.301-.684-.2-.182-.46-.342-.779-.478a8.295 8.295 0 0 0-1.025-.369c-.374-.11-.734-.233-1.08-.37a11.178 11.178 0 0 1-1.477-.669 4.568 4.568 0 0 1-1.066-.848 3.452 3.452 0 0 1-.657-1.108c-.145-.419-.218-.916-.218-1.49 0-.784.168-1.458.506-2.023a4.206 4.206 0 0 1 1.367-1.381 6.11 6.11 0 0 1 1.955-.793c.738-.173 1.504-.26 2.297-.26.619 0 1.248.05 1.886.151a13.28 13.28 0 0 1 1.887.41v3.336a6.631 6.631 0 0 0-1.764-.711 7.134 7.134 0 0 0-1.832-.246c-.282 0-.551.027-.806.082a2.3 2.3 0 0 0-.656.218 1.147 1.147 0 0 0-.452.37.82.82 0 0 0-.164.505c0 .256.082.474.246.657.164.182.379.341.643.478.264.128.556.246.875.356.328.1.652.205.971.314.574.201 1.093.419 1.558.656a4.85 4.85 0 0 1 1.19.834c.337.319.592.693.765 1.121.183.429.274.939.274 1.532 0 .829-.183 1.54-.547 2.133a4.33 4.33 0 0 1-1.436 1.435c-.592.365-1.28.629-2.064.793a11.08 11.08 0 0 1-2.42.26c-1.54 0-2.967-.237-4.279-.711Z" id="CL1"/><path d="M403.185 212v-19.605h1.819v17.951h7.875V212h-9.694Zm20.235 0v-2.488h-.054c-.456.893-1.081 1.586-1.874 2.078-.783.492-1.672.738-2.666.738a5.532 5.532 0 0 1-1.832-.287 4.038 4.038 0 0 1-1.38-.807 3.756 3.756 0 0 1-.875-1.271 4.265 4.265 0 0 1-.301-1.627c0-1.267.392-2.274 1.176-3.022.783-.756 1.968-1.248 3.554-1.476l4.252-.615c0-2.689-1.043-4.034-3.131-4.034-1.631 0-3.144.597-4.539 1.791v-1.914a5.7 5.7 0 0 1 .985-.56 8.263 8.263 0 0 1 1.175-.438c.411-.127.83-.223 1.258-.287a7.734 7.734 0 0 1 1.272-.109c1.558 0 2.734.437 3.527 1.312.802.875 1.203 2.179 1.203 3.911V212h-1.75Zm-3.609-6.795c-.629.091-1.167.205-1.613.342-.447.137-.816.323-1.108.56a2 2 0 0 0-.642.862c-.137.337-.206.756-.206 1.258 0 .373.064.72.192 1.039.137.319.328.597.574.834.255.227.561.405.916.533.365.127.775.191 1.231.191.619 0 1.189-.118 1.709-.355a3.981 3.981 0 0 0 1.339-.985 4.41 4.41 0 0 0 .889-1.504 5.36 5.36 0 0 0 .328-1.9v-1.381l-3.609.506Zm15.026 6.631a4.34 4.34 0 0 1-1.969.451c-2.26 0-3.391-1.303-3.391-3.91v-8.846h-2.461V198h2.461v-3.527l1.75-.575V198h3.61v1.531h-3.61v8.573c0 .947.155 1.631.465 2.05.31.42.834.629 1.573.629.546 0 1.07-.164 1.572-.492v1.545Zm2.953-6.522c.01.857.124 1.627.342 2.311.219.684.533 1.262.944 1.736.41.474.907.839 1.49 1.094.592.246 1.258.369 1.996.369 1.577 0 3.067-.551 4.471-1.654v1.723c-1.34.957-2.963 1.435-4.868 1.435-.938 0-1.791-.164-2.556-.492a5.33 5.33 0 0 1-1.955-1.422c-.538-.629-.953-1.399-1.244-2.31-.292-.912-.438-1.951-.438-3.118 0-1.048.16-2.019.479-2.912.319-.893.761-1.663 1.326-2.31a5.989 5.989 0 0 1 2.01-1.532 5.781 5.781 0 0 1 2.543-.56c.902 0 1.699.159 2.392.478a4.57 4.57 0 0 1 1.736 1.34c.474.584.834 1.295 1.081 2.133.246.839.369 1.777.369 2.816v.875H437.79Zm8.313-1.531c-.027-1.458-.374-2.588-1.039-3.39-.665-.803-1.591-1.204-2.775-1.204-.593 0-1.144.105-1.655.315-.501.21-.943.515-1.326.916a4.886 4.886 0 0 0-.957 1.449 7.38 7.38 0 0 0-.52 1.914h8.272ZM460.227 212v-8.066c0-3.163-1.149-4.745-3.446-4.745-.61 0-1.176.123-1.695.37-.52.237-.971.569-1.354.998-.373.428-.67.938-.888 1.531a5.57 5.57 0 0 0-.315 1.9V212h-1.75v-14h1.75v2.434h.055c1.039-1.842 2.602-2.762 4.689-2.762 1.532 0 2.698.497 3.5 1.49.803.994 1.204 2.429 1.204 4.307V212h-1.75Zm14.725-.629c-1.039.629-2.297.953-3.774.971-1.002.009-1.905-.164-2.707-.52a5.975 5.975 0 0 1-2.051-1.476 6.67 6.67 0 0 1-1.298-2.242 8.525 8.525 0 0 1-.452-2.817c0-1.048.16-2.032.479-2.953a6.988 6.988 0 0 1 1.395-2.42 6.547 6.547 0 0 1 2.242-1.641c.884-.401 1.896-.601 3.035-.601 1.157 0 2.215.223 3.172.67v1.859c-1.021-.674-2.124-1.012-3.309-1.012-.829 0-1.568.16-2.215.479a4.718 4.718 0 0 0-1.64 1.285 5.822 5.822 0 0 0-1.012 1.901 7.56 7.56 0 0 0-.342 2.296c0 .748.096 1.463.287 2.147.201.683.502 1.29.903 1.818.41.52.925.934 1.545 1.244.619.31 1.348.465 2.187.465a5.824 5.824 0 0 0 3.555-1.176v1.723Zm6.877 3.172c-.547 1.367-1.176 2.379-1.886 3.035-.711.665-1.573.998-2.584.998-.502 0-.926-.059-1.272-.178v-1.64c.201.073.401.127.602.164.209.036.419.055.629.055.574 0 1.07-.183 1.49-.547.428-.356.797-.898 1.107-1.627l1.217-2.871L475.745 198h1.942l4.006 11.088c.054.146.104.314.15.506.055.182.105.364.15.547h.069c.045-.155.086-.31.123-.465.045-.164.105-.342.177-.533L486.614 198h1.846l-6.631 16.543ZM511.33 212v-13.535c0-.693.055-1.809.164-3.35h-.054c-.128.41-.246.766-.356 1.067-.1.3-.196.547-.287.738L503.961 212h-.779l-6.85-14.984c-.2-.456-.405-1.099-.615-1.928h-.055c.037.419.06.898.069 1.435.018.538.027 1.135.027 1.791V212h-1.777v-19.605h2.146l6.658 14.738c.137.31.269.629.397.957.137.319.26.661.369 1.025h.082c.128-.364.242-.697.342-.998.109-.301.241-.624.396-.971l6.713-14.751h2.037V212h-1.791Zm11.759.328c-1.039 0-1.974-.173-2.803-.519a6.04 6.04 0 0 1-2.105-1.463 6.534 6.534 0 0 1-1.34-2.284c-.31-.884-.465-1.863-.465-2.939 0-1.167.164-2.21.492-3.131.328-.92.793-1.7 1.395-2.338a6 6 0 0 1 2.201-1.476c.857-.338 1.814-.506 2.871-.506 1.012 0 1.923.168 2.734.506a5.51 5.51 0 0 1 2.065 1.435c.565.629.998 1.395 1.298 2.297.301.902.452 1.928.452 3.076 0 1.094-.16 2.092-.479 2.994a6.655 6.655 0 0 1-1.34 2.311 5.964 5.964 0 0 1-2.133 1.504c-.838.355-1.786.533-2.843.533Zm.136-13.139c-.765 0-1.458.133-2.078.397a4.387 4.387 0 0 0-1.599 1.162c-.438.501-.775 1.121-1.012 1.859-.237.73-.355 1.559-.355 2.489 0 .875.118 1.663.355 2.365.237.702.57 1.303.998 1.805.438.501.966.888 1.586 1.162.62.264 1.312.396 2.078.396.784 0 1.477-.127 2.078-.383a4.196 4.196 0 0 0 1.531-1.134c.42-.502.734-1.112.944-1.832.219-.72.328-1.541.328-2.461 0-1.887-.419-3.327-1.258-4.321-.838-1.002-2.037-1.504-3.596-1.504ZM542.298 212v-8.066c0-3.163-1.148-4.745-3.445-4.745-.611 0-1.176.123-1.695.37-.52.237-.971.569-1.354.998-.374.428-.67.938-.889 1.531a5.594 5.594 0 0 0-.314 1.9V212h-1.75v-14h1.75v2.434h.055c1.039-1.842 2.602-2.762 4.689-2.762 1.531 0 2.698.497 3.5 1.49.802.994 1.203 2.429 1.203 4.307V212h-1.75Zm6.276-17.541c-.337 0-.629-.119-.875-.355a1.2 1.2 0 0 1-.369-.903c0-.355.123-.647.369-.875.246-.237.538-.355.875-.355.173 0 .337.032.492.095.155.055.288.137.397.246.118.11.21.242.273.397.073.146.11.31.11.492a1.276 1.276 0 0 1-.369.903 1.384 1.384 0 0 1-.411.259 1.206 1.206 0 0 1-.492.096ZM547.713 212v-14h1.75v14h-1.75Zm11.717-.164a4.336 4.336 0 0 1-1.969.451c-2.26 0-3.39-1.303-3.39-3.91v-8.846h-2.461V198h2.461v-3.527l1.75-.575V198h3.609v1.531h-3.609v8.573c0 .947.155 1.631.465 2.05.31.42.834.629 1.572.629.547 0 1.071-.164 1.572-.492v1.545Zm7.848.492c-1.039 0-1.973-.173-2.802-.519a6.044 6.044 0 0 1-2.106-1.463 6.55 6.55 0 0 1-1.34-2.284c-.31-.884-.464-1.863-.464-2.939 0-1.167.164-2.21.492-3.131.328-.92.793-1.7 1.394-2.338a6.016 6.016 0 0 1 2.201-1.476c.857-.338 1.814-.506 2.872-.506 1.011 0 1.923.168 2.734.506a5.507 5.507 0 0 1 2.064 1.435c.565.629.998 1.395 1.299 2.297.301.902.451 1.928.451 3.076 0 1.094-.159 2.092-.478 2.994a6.671 6.671 0 0 1-1.34 2.311 5.964 5.964 0 0 1-2.133 1.504c-.838.355-1.786.533-2.844.533Zm.137-13.139c-.765 0-1.458.133-2.078.397a4.39 4.39 0 0 0-1.6 1.162c-.437.501-.774 1.121-1.011 1.859-.237.73-.356 1.559-.356 2.489 0 .875.119 1.663.356 2.365a5.4 5.4 0 0 0 .998 1.805c.437.501.966.888 1.586 1.162.619.264 1.312.396 2.078.396.784 0 1.476-.127 2.078-.383a4.196 4.196 0 0 0 1.531-1.134c.419-.502.734-1.112.944-1.832.218-.72.328-1.541.328-2.461 0-1.887-.42-3.327-1.258-4.321-.839-1.002-2.037-1.504-3.596-1.504Zm16.571.602c-.41-.301-.939-.451-1.586-.451a2.66 2.66 0 0 0-1.23.273 3.1 3.1 0 0 0-.944.711 4.558 4.558 0 0 0-.683 1.053 7.91 7.91 0 0 0-.452 1.23c-.109.429-.191.862-.246 1.299-.045.438-.068.852-.068 1.244V212h-1.736v-14h1.736v2.994h.055c.164-.51.369-.966.615-1.367.255-.41.547-.752.875-1.025a3.584 3.584 0 0 1 1.066-.643 3.497 3.497 0 0 1 1.231-.219c.282 0 .533.018.752.055.228.036.433.091.615.164v1.832Z" id="CL0"/></svg>